<svg width="154" height="183" viewBox="0 0 154 183" fill="none" xmlns="http://www.w3.org/2000/svg">
<path d="M87 10C87 4.47715 82.5228 2.41411e-07 77 0C71.4772 -2.41411e-07 67 4.47715 67 10L87 10ZM69.9289 147.071C73.8342 150.976 80.1658 150.976 84.0711 147.071L147.711 83.4315C151.616 79.5262 151.616 73.1946 147.711 69.2893C143.805 65.3841 137.474 65.3841 133.569 69.2893L77 125.858L20.4315 69.2893C16.5262 65.3841 10.1946 65.3841 6.28932 69.2893C2.38408 73.1946 2.38408 79.5262 6.28932 83.4315L69.9289 147.071ZM67 10L67 140L87 140L87 10L67 10Z" fill="#223843"/>
<path d="M10 173L144 173" stroke="#223843" stroke-width="20" stroke-linecap="round"/>
</svg>
